<svg width="1600" height="1000" viewBox="0 0 1600 1000" fill="none" xmlns="http://www.w3.org/2000/svg">
  <defs>
    <linearGradient id="bg" x1="0" y1="0" x2="1600" y2="1000" gradientUnits="userSpaceOnUse">
      <stop stop-color="#041C3C"/>
      <stop offset="1" stop-color="#0A2F5C"/>
    </linearGradient>
    <linearGradient id="panel" x1="0" y1="0" x2="0" y2="1">
      <stop stop-color="#0D2347"/>
      <stop offset="1" stop-color="#091B37"/>
    </linearGradient>
    <linearGradient id="accent" x1="0" y1="0" x2="1" y2="1">
      <stop stop-color="#F2C300"/>
      <stop offset="1" stop-color="#DFA600"/>
    </linearGradient>
    <filter id="shadow" x="-20%" y="-20%" width="140%" height="140%">
      <feDropShadow dx="0" dy="12" stdDeviation="18" flood-color="#010814" flood-opacity="0.35"/>
    </filter>
    <style>
      .title { font: 700 24px 'DejaVu Sans', Arial, sans-serif; fill: #F6F8FF; }
      .brand { font: 700 36px 'DejaVu Sans', Arial, sans-serif; fill: #FFFFFF; }
      .nav { font: 700 18px 'DejaVu Sans', Arial, sans-serif; fill: #D2DCF4; }
      .muted { font: 400 16px 'DejaVu Sans', Arial, sans-serif; fill: #9FB0D7; }
      .site { font: 700 28px 'DejaVu Sans', Arial, sans-serif; fill: #FFFFFF; }
      .big { font: 700 48px 'DejaVu Sans', Arial, sans-serif; fill: #FFFFFF; }
      .kpi { font: 700 18px 'DejaVu Sans', Arial, sans-serif; fill: #DDE7FF; }
      .small { font: 400 15px 'DejaVu Sans', Arial, sans-serif; fill: #B7C6E8; }
      .cardTitle { font: 700 18px 'DejaVu Sans', Arial, sans-serif; fill: #F7F9FF; }
      .legend { font: 400 15px 'DejaVu Sans', Arial, sans-serif; fill: #D9E3FF; }
      .button { font: 700 15px 'DejaVu Sans', Arial, sans-serif; fill: #0A2340; }
    </style>
  </defs>

  <rect width="1600" height="1000" fill="url(#bg)"/>
  <circle cx="1360" cy="140" r="240" fill="#F2C300" fill-opacity="0.08"/>
  <circle cx="240" cy="900" r="260" fill="#1D6FE8" fill-opacity="0.10"/>

  <rect x="40" y="28" width="1520" height="78" rx="20" fill="#081A35" fill-opacity="0.92" stroke="#163763"/>
  <text x="86" y="76" class="brand">MboaLink</text>
  <text x="330" y="76" class="nav">Dashboard</text>
  <text x="450" y="76" class="nav">Reports</text>
  <rect x="640" y="48" width="280" height="40" rx="12" fill="#10284C"/>
  <text x="675" y="74" class="muted">Rechercher un hotel, un device...</text>
  <rect x="1240" y="48" width="210" height="40" rx="12" fill="#10284C"/>
  <text x="1280" y="74" class="muted">08/03/2026 - 14/03/2026</text>

  <text x="90" y="155" class="title">Vue generale</text>
  <text x="90" y="205" class="site">MboaLink Yaounde Central</text>
  <text x="90" y="233" class="muted">Supervision simple, detaillee et operationnelle pour un premier dashboard fiable</text>

  <rect x="1260" y="162" width="132" height="40" rx="12" fill="#11427A"/>
  <text x="1292" y="188" class="legend">Network Map</text>
  <rect x="1406" y="162" width="124" height="40" rx="12" fill="#1F9F62"/>
  <text x="1428" y="188" class="legend">Alertes ON</text>

  <rect x="86" y="270" width="380" height="58" rx="14" fill="#2BAA4A" filter="url(#shadow)"/>
  <text x="126" y="307" class="cardTitle">OVI Server</text>
  <circle cx="108" cy="298" r="7" fill="#D4FFE0"/>

  <rect x="486" y="270" width="380" height="58" rx="14" fill="#F2C300" filter="url(#shadow)"/>
  <text x="526" y="307" class="cardTitle">Captive Portal</text>
  <circle cx="508" cy="298" r="7" fill="#FFF2B5"/>

  <rect x="886" y="270" width="380" height="58" rx="14" fill="#11427A" filter="url(#shadow)"/>
  <text x="922" y="307" class="cardTitle">Internet Uplink</text>
  <circle cx="904" cy="298" r="7" fill="#CFE6FF"/>

  <rect x="86" y="350" width="115" height="118" rx="18" fill="#1670E6" filter="url(#shadow)"/>
  <text x="102" y="385" class="kpi">Total Rooms</text>
  <text x="98" y="448" class="big">259</text>

  <rect x="86" y="484" width="115" height="118" rx="18" fill="#6E42D3" filter="url(#shadow)"/>
  <text x="99" y="519" class="kpi">Devices</text>
  <text x="98" y="582" class="big">227</text>

  <rect x="86" y="618" width="115" height="118" rx="18" fill="#24B35A" filter="url(#shadow)"/>
  <text x="99" y="653" class="kpi">Switches</text>
  <text x="96" y="703" class="big">11</text>
  <text x="99" y="724" class="small">11 actifs</text>

  <rect x="86" y="752" width="115" height="118" rx="18" fill="#F2C300" filter="url(#shadow)"/>
  <text x="99" y="787" class="kpi">Access Points</text>
  <text x="96" y="837" class="big">258</text>
  <text x="99" y="858" class="small">284 detectes</text>

  <rect x="218" y="350" width="408" height="180" rx="22" fill="url(#panel)" stroke="#173965" filter="url(#shadow)"/>
  <text x="250" y="382" class="cardTitle">Devices by OS</text>
  <circle cx="325" cy="445" r="58" fill="#1C7BFF"/>
  <path d="M325 445 L325 387 A58 58 0 0 1 375 474 Z" fill="#7C4DFF"/>
  <path d="M325 445 L375 474 A58 58 0 0 1 290 491 Z" fill="#F2C300"/>
  <path d="M325 445 L290 491 A58 58 0 0 1 272 408 Z" fill="#24B35A"/>
  <circle cx="462" cy="407" r="7" fill="#1C7BFF"/><text x="478" y="413" class="legend">Android (59%)</text>
  <circle cx="462" cy="437" r="7" fill="#7C4DFF"/><text x="478" y="443" class="legend">iOS (32%)</text>
  <circle cx="462" cy="467" r="7" fill="#F2C300"/><text x="478" y="473" class="legend">Windows (5%)</text>
  <circle cx="462" cy="497" r="7" fill="#24B35A"/><text x="478" y="503" class="legend">Autres (4%)</text>

  <rect x="642" y="350" width="408" height="180" rx="22" fill="url(#panel)" stroke="#173965" filter="url(#shadow)"/>
  <text x="674" y="382" class="cardTitle">Devices by Types</text>
  <circle cx="750" cy="445" r="58" fill="#1C7BFF"/>
  <path d="M750 445 L750 387 A58 58 0 0 1 793 483 Z" fill="#7C4DFF"/>
  <path d="M750 445 L793 483 A58 58 0 0 1 710 487 Z" fill="#F2C300"/>
  <circle cx="887" cy="407" r="7" fill="#1C7BFF"/><text x="903" y="413" class="legend">Smartphones (90%)</text>
  <circle cx="887" cy="437" r="7" fill="#7C4DFF"/><text x="903" y="443" class="legend">Laptops (8%)</text>
  <circle cx="887" cy="467" r="7" fill="#F2C300"/><text x="903" y="473" class="legend">Tablettes (2%)</text>

  <rect x="1066" y="350" width="314" height="180" rx="22" fill="url(#panel)" stroke="#173965" filter="url(#shadow)"/>
  <text x="1098" y="382" class="cardTitle">Devices by Zone</text>
  <circle cx="1166" cy="445" r="58" fill="#1C7BFF"/>
  <path d="M1166 445 L1166 387 A58 58 0 0 1 1201 485 Z" fill="#7C4DFF"/>
  <path d="M1166 445 L1201 485 A58 58 0 0 1 1124 484 Z" fill="#24B35A"/>
  <circle cx="1260" cy="407" r="7" fill="#1C7BFF"/><text x="1276" y="413" class="legend">Guest Rooms</text>
  <circle cx="1260" cy="437" r="7" fill="#7C4DFF"/><text x="1276" y="443" class="legend">Lobby / Public</text>
  <circle cx="1260" cy="467" r="7" fill="#24B35A"/><text x="1276" y="473" class="legend">Zones custom</text>

  <rect x="1396" y="350" width="134" height="180" rx="18" fill="#1670E6" filter="url(#shadow)"/>
  <text x="1415" y="386" class="kpi">Guest Logins</text>
  <text x="1414" y="452" class="big">5138</text>
  <text x="1415" y="506" class="small">sur la periode</text>

  <rect x="218" y="548" width="560" height="322" rx="22" fill="url(#panel)" stroke="#173965" filter="url(#shadow)"/>
  <text x="250" y="580" class="cardTitle">Current Bandwidth Utilization</text>
  <path d="M312 686 A78 78 0 1 1 392 606" stroke="#1C7BFF" stroke-width="20" stroke-linecap="round"/>
  <path d="M548 686 A78 78 0 0 1 603 608" stroke="#F2C300" stroke-width="20" stroke-linecap="round"/>
  <text x="300" y="688" class="cardTitle">Download</text>
  <text x="312" y="726" class="big" style="font-size:40px">33%</text>
  <text x="312" y="754" class="small">31.0 Mbps</text>
  <text x="534" y="688" class="cardTitle">Upload</text>
  <text x="546" y="726" class="big" style="font-size:40px">10%</text>
  <text x="546" y="754" class="small">9.37 Mbps</text>
  <text x="250" y="812" class="cardTitle">Internet Providers</text>
  <text x="250" y="844" class="legend">Shaw - eth0</text>
  <text x="410" y="844" class="legend">33 Mbps down / 33 Mbps up</text>
  <text x="250" y="872" class="legend">Mboa Telecom - eth4</text>
  <text x="462" y="872" class="legend">30 Mbps down / 30 Mbps up</text>

  <rect x="794" y="548" width="736" height="322" rx="22" fill="url(#panel)" stroke="#173965" filter="url(#shadow)"/>
  <text x="826" y="580" class="cardTitle">Internet Bandwidth Usage</text>
  <rect x="1348" y="564" width="76" height="34" rx="11" fill="#1670E6"/>
  <text x="1366" y="586" class="legend">Internet</text>
  <rect x="1434" y="564" width="60" height="34" rx="11" fill="#10284C"/>
  <text x="1453" y="586" class="legend">Zones</text>
  <line x1="840" y1="800" x2="1488" y2="800" stroke="#33527E"/>
  <line x1="840" y1="742" x2="1488" y2="742" stroke="#274467"/>
  <line x1="840" y1="684" x2="1488" y2="684" stroke="#274467"/>
  <line x1="840" y1="626" x2="1488" y2="626" stroke="#274467"/>
  <path d="M850 642 C910 620 940 670 1000 648 C1060 626 1110 692 1170 668 C1230 644 1270 706 1330 680 C1390 654 1430 694 1480 646" stroke="#7C4DFF" stroke-width="5" fill="none"/>
  <path d="M850 710 C910 734 960 692 1010 706 C1060 720 1120 700 1180 722 C1240 744 1310 718 1370 724 C1430 730 1450 706 1480 700" stroke="#1C7BFF" stroke-width="5" fill="none"/>
  <path d="M850 768 C930 770 1020 766 1100 768 C1180 770 1260 764 1340 768 C1420 772 1450 826 1480 774" stroke="#F2C300" stroke-width="5" fill="none"/>
  <circle cx="854" cy="602" r="6" fill="#7C4DFF"/><text x="868" y="608" class="legend">eth0 download</text>
  <circle cx="1012" cy="602" r="6" fill="#1C7BFF"/><text x="1026" y="608" class="legend">eth0 upload</text>
  <circle cx="1136" cy="602" r="6" fill="#F2C300"/><text x="1150" y="608" class="legend">eth4 upload</text>
  <rect x="1450" y="640" width="52" height="34" rx="10" fill="#10284C"/><text x="1464" y="662" class="legend">1h</text>
  <rect x="1450" y="686" width="52" height="34" rx="10" fill="#11427A"/><text x="1462" y="708" class="legend">6h</text>
  <rect x="1450" y="732" width="52" height="34" rx="10" fill="#10284C"/><text x="1462" y="754" class="legend">24h</text>

  <rect x="1396" y="548" width="134" height="144" rx="18" fill="#6E42D3" filter="url(#shadow)"/>
  <text x="1415" y="584" class="kpi">Checked-in</text>
  <text x="1420" y="646" class="big">57%</text>
  <text x="1418" y="670" class="small">occupation</text>

  <rect x="1396" y="708" width="134" height="162" rx="18" fill="#0F2C53" stroke="#1C4B84" filter="url(#shadow)"/>
  <text x="1415" y="744" class="kpi">Actions</text>
  <rect x="1412" y="764" width="104" height="34" rx="10" fill="url(#accent)"/><text x="1436" y="786" class="button">Switches</text>
  <rect x="1412" y="808" width="104" height="34" rx="10" fill="url(#accent)"/><text x="1420" y="830" class="button">Access Points</text>

  <rect x="40" y="930" width="1520" height="40" rx="14" fill="#081A35" fill-opacity="0.88" stroke="#163763"/>
  <text x="88" y="956" class="muted">MVP dashboard: simple, detaille, exploitable rapidement. Sans DNS ni PMS, mais avec supervision reseau, connexions, capacite et points de drill-down.</text>
</svg>
