<svg width="1600" height="1000" viewBox="0 0 1600 1000" fill="none" xmlns="http://www.w3.org/2000/svg">
  <defs>
    <linearGradient id="page" x1="0" y1="0" x2="1600" y2="1000" gradientUnits="userSpaceOnUse">
      <stop stop-color="#EEF3FA"/>
      <stop offset="1" stop-color="#E4EBF5"/>
    </linearGradient>
    <linearGradient id="dashboardBg" x1="250" y1="135" x2="1540" y2="930" gradientUnits="userSpaceOnUse">
      <stop stop-color="#FFFFFF"/>
      <stop offset="1" stop-color="#F4F8FD"/>
    </linearGradient>
    <linearGradient id="card" x1="0" y1="0" x2="0" y2="1">
      <stop stop-color="#FFFFFF"/>
      <stop offset="1" stop-color="#F5F8FD"/>
    </linearGradient>
    <filter id="shadow" x="-20%" y="-20%" width="140%" height="140%">
      <feDropShadow dx="0" dy="10" stdDeviation="16" flood-color="#11213B" flood-opacity="0.22"/>
    </filter>
    <style>
      .header { font: 700 24px 'DejaVu Sans', Arial, sans-serif; fill: #FFFFFF; }
      .side { font: 600 18px 'DejaVu Sans', Arial, sans-serif; fill: #E7F0FF; }
      .bodyTitle { font: 700 36px 'DejaVu Sans', Arial, sans-serif; fill: #0C2340; }
      .bodyText { font: 400 18px 'DejaVu Sans', Arial, sans-serif; fill: #4D6386; }
      .brand { font: 700 24px 'DejaVu Sans', Arial, sans-serif; fill: #0C2340; }
      .dashTitle { font: 700 18px 'DejaVu Sans', Arial, sans-serif; fill: #0C2340; }
      .muted { font: 400 13px 'DejaVu Sans', Arial, sans-serif; fill: #6A7EA3; }
      .kpi { font: 700 14px 'DejaVu Sans', Arial, sans-serif; fill: #FFFFFF; }
      .big { font: 700 34px 'DejaVu Sans', Arial, sans-serif; fill: #FFFFFF; }
      .small { font: 400 12px 'DejaVu Sans', Arial, sans-serif; fill: #60789A; }
      .panelLabel { font: 700 12px 'DejaVu Sans', Arial, sans-serif; fill: #FFFFFF; }
      .caption { font: 700 20px 'DejaVu Sans', Arial, sans-serif; fill: #0C2340; }
    </style>
  </defs>

  <rect width="1600" height="1000" fill="url(#page)"/>

  <rect x="0" y="0" width="1600" height="84" fill="#003366"/>
  <text x="36" y="52" class="header">MboaLink - Administration</text>
  <rect x="338" y="22" width="188" height="40" rx="12" fill="#002855"/>
  <text x="362" y="48" class="side">Tableau de bord</text>
  <text x="556" y="48" class="side">Profil</text>
  <text x="650" y="48" class="side">Parametres</text>
  <text x="806" y="48" class="side" fill="#D6E7FF">Hotel manager</text>
  <text x="964" y="48" class="side" fill="#D6E7FF">Devices</text>
  <text x="1066" y="48" class="side" fill="#D6E7FF">Logins</text>
  <circle cx="1518" cy="42" r="18" fill="#F2C300"/>
  <text x="1512" y="48" class="panelLabel" fill="#0A2340">J</text>

  <text x="40" y="140" class="bodyTitle">Apercu integration dashboard</text>
  <text x="40" y="172" class="bodyText">Simulation du nouveau dashboard MboaLink place dans la vue administrateur actuelle.</text>

  <rect x="40" y="208" width="1514" height="724" rx="28" fill="#F8FBFF" stroke="#D9E3F1" filter="url(#shadow)"/>
  <text x="74" y="248" class="caption">Zone principale du contenu admin</text>

  <rect x="74" y="278" width="1446" height="620" rx="26" fill="url(#dashboardBg)" filter="url(#shadow)"/>
  <circle cx="1390" cy="350" r="170" fill="#F2C300" fill-opacity="0.04"/>
  <circle cx="470" cy="840" r="180" fill="#1D6FE8" fill-opacity="0.05"/>

  <rect x="104" y="304" width="1386" height="54" rx="16" fill="#FFFFFF" stroke="#D7E1EF"/>
  <text x="134" y="339" class="brand" style="font-size:20px">MboaLink</text>
  <text x="294" y="339" class="muted" style="font-weight:700">Dashboard</text>
  <text x="386" y="339" class="muted" style="font-weight:700">Reports</text>
  <rect x="544" y="316" width="260" height="30" rx="10" fill="#F2F6FB" stroke="#D8E1EE"/>
  <rect x="1210" y="316" width="250" height="30" rx="10" fill="#F2F6FB" stroke="#D8E1EE"/>

  <text x="108" y="398" class="dashTitle" style="font-size:28px">MboaLink Yaounde Central</text>
  <text x="108" y="424" class="muted" style="font-size:14px">Version integree dans le shell administrateur actuel</text>

  <rect x="104" y="448" width="420" height="42" rx="12" fill="#2BAA4A"/>
  <text x="134" y="474" class="panelLabel">OVI Server</text>
  <rect x="540" y="448" width="420" height="42" rx="12" fill="#F2C300"/>
  <text x="570" y="474" class="panelLabel" fill="#0A2340">Captive Portal</text>
  <rect x="976" y="448" width="420" height="42" rx="12" fill="#11427A"/>
  <text x="1006" y="474" class="panelLabel">Internet Uplink</text>

  <rect x="104" y="514" width="110" height="100" rx="16" fill="#1670E6"/>
  <text x="120" y="544" class="kpi">Rooms</text>
  <text x="118" y="590" class="big">259</text>

  <rect x="104" y="628" width="110" height="100" rx="16" fill="#6E42D3"/>
  <text x="118" y="658" class="kpi">Devices</text>
  <text x="118" y="704" class="big">227</text>

  <rect x="104" y="742" width="110" height="100" rx="16" fill="#24B35A"/>
  <text x="114" y="772" class="kpi">Switches</text>
  <text x="118" y="818" class="big">11</text>

  <rect x="230" y="514" width="410" height="160" rx="20" fill="url(#card)" stroke="#DCE5F2"/>
  <text x="256" y="544" class="dashTitle">Devices by OS</text>
  <circle cx="336" cy="596" r="46" fill="#1C7BFF"/>
  <path d="M336 596 L336 550 A46 46 0 0 1 377 626 Z" fill="#7C4DFF"/>
  <path d="M336 596 L377 626 A46 46 0 0 1 305 632 Z" fill="#F2C300"/>
  <text x="420" y="576" class="small" fill="#35527B">Android 59%</text>
  <text x="420" y="604" class="small" fill="#35527B">iOS 32%</text>
  <text x="420" y="632" class="small" fill="#35527B">Autres 9%</text>

  <rect x="656" y="514" width="410" height="160" rx="20" fill="url(#card)" stroke="#DCE5F2"/>
  <text x="682" y="544" class="dashTitle">Devices by Types</text>
  <circle cx="764" cy="596" r="46" fill="#1C7BFF"/>
  <path d="M764 596 L764 550 A46 46 0 0 1 799 628 Z" fill="#7C4DFF"/>
  <text x="848" y="576" class="small" fill="#35527B">Smartphones 90%</text>
  <text x="848" y="604" class="small" fill="#35527B">Laptops 8%</text>
  <text x="848" y="632" class="small" fill="#35527B">Tablettes 2%</text>

  <rect x="1082" y="514" width="314" height="160" rx="20" fill="#1670E6" stroke="#173965"/>
  <text x="1108" y="544" class="dashTitle">Guest Logins</text>
  <text x="1112" y="612" class="big">5138</text>
  <text x="1110" y="640" class="small" fill="#E8F0FF">sur la periode</text>

  <rect x="230" y="690" width="520" height="152" rx="20" fill="url(#card)" stroke="#DCE5F2"/>
  <text x="256" y="720" class="dashTitle">Bandwidth Utilization</text>
  <text x="274" y="780" class="small" fill="#35527B">Download</text>
  <text x="270" y="818" class="big" style="font-size:28px">33%</text>
  <text x="480" y="780" class="small" fill="#35527B">Upload</text>
  <text x="476" y="818" class="big" style="font-size:28px">10%</text>
  <path d="M330 792 A44 44 0 1 1 375 747" stroke="#1C7BFF" stroke-width="14" stroke-linecap="round"/>
  <path d="M536 792 A44 44 0 0 1 567 748" stroke="#F2C300" stroke-width="14" stroke-linecap="round"/>

  <rect x="766" y="690" width="630" height="152" rx="20" fill="url(#card)" stroke="#DCE5F2"/>
  <text x="792" y="720" class="dashTitle">Internet Usage</text>
  <line x1="794" y1="814" x2="1320" y2="814" stroke="#D5DFEC"/>
  <path d="M802 748 C850 724 900 776 956 744 C1010 714 1058 780 1110 752 C1160 726 1218 760 1268 736" stroke="#7C4DFF" stroke-width="4" fill="none"/>
  <path d="M802 786 C860 792 922 768 974 786 C1026 804 1086 780 1140 790 C1180 796 1244 784 1316 778" stroke="#1C7BFF" stroke-width="4" fill="none"/>

  <rect x="1228" y="690" width="168" height="152" rx="20" fill="#0F2C53" stroke="#1C4B84"/>
  <text x="1252" y="720" class="dashTitle" fill="#FFFFFF">Actions</text>
  <rect x="1242" y="744" width="140" height="34" rx="10" fill="#F2C300"/>
  <text x="1276" y="766" class="panelLabel" fill="#0A2340">Switches</text>
  <rect x="1242" y="792" width="140" height="34" rx="10" fill="#F2C300"/>
  <text x="1258" y="814" class="panelLabel" fill="#0A2340">Access Points</text>

  <rect x="74" y="912" width="1446" height="1" fill="#D9E3F1"/>
  <text x="74" y="956" class="bodyText">Cette image montre comment le nouveau dashboard pourrait s'inscrire dans l'admin MboaLink existant sans changer tout le shell applicatif.</text>
</svg>
